<svg xmlns="http://www.w3.org/2000/svg" xmlns:xlink="http://www.w3.org/1999/xlink" viewBox="0 0 361.1 318.89"><defs><style>.cls-1{fill:none;}.cls-2{clip-path:url(#clip-path);}.cls-3{fill:#868787;}.cls-4{fill:#18223b;}.cls-5{fill:#cdcfd1;}.cls-6{fill:#e3bcda;}.cls-7{fill:#eb95bf;}.cls-8{fill:#d29ac5;}</style><clipPath id="clip-path" transform="translate(0 0)"><rect class="cls-1" width="361.1" height="318.89"/></clipPath></defs><g id="Lag_2" data-name="Lag 2"><g id="Lag_1-2" data-name="Lag 1"><g id="Illustration_33" data-name="Illustration 33"><g class="cls-2"><rect class="cls-3" x="149.4" y="116.2" width="6.58" height="133.49" transform="translate(-70.62 266.1) rotate(-70.58)"/><rect class="cls-3" x="238.51" y="63.07" width="11.29" height="133.49"/><g class="cls-2"><path class="cls-4" d="M317.32,297a14.4,14.4,0,1,1-14.4-14.4,14.4,14.4,0,0,1,14.4,14.4" transform="translate(0 0)"/><path class="cls-4" d="M195.72,298a14.4,14.4,0,1,1-14.4-14.4,14.39,14.39,0,0,1,14.4,14.4" transform="translate(0 0)"/><path class="cls-4" d="M59.13,66.92c0,15-10.1,27.24-22.57,27.24S14,82,14,66.92s10.1-27.24,22.57-27.24,22.57,12.2,22.57,27.24" transform="translate(0 0)"/><rect class="cls-4" x="-41.66" y="147.62" width="146.08" height="8" transform="translate(-121.47 176.33) rotate(-87.49)"/><rect class="cls-4" x="63.76" y="93.48" width="5.84" height="80.95" transform="translate(-80.85 108.96) rotate(-53.92)"/><rect class="cls-4" x="57.97" y="109.47" width="5.84" height="69.38" transform="translate(-91.48 108.46) rotate(-53.92)"/><rect class="cls-4" x="48.21" y="209.38" width="5.45" height="55.4" transform="translate(-170.66 138.62) rotate(-53.92)"/><path class="cls-4" d="M47.64,310.32,69,249.76l5.94,1.43q-11.08,30.46-22.16,60.94Z" transform="translate(0 0)"/><rect class="cls-4" x="-3.03" y="246.87" width="55.4" height="5.22" transform="translate(-226.01 252.62) rotate(-85.07)"/><path class="cls-4" d="M0,316.4l21.18-46.32,3.71,7.23L5.44,318.89Z" transform="translate(0 0)"/><path class="cls-5" d="M246.1,295.42c-33-.06-63.93,1.28-92.63,3.5V180.6a4.68,4.68,0,0,1,4.67-4.67h172a4.68,4.68,0,0,1,4.67,4.67V298.92c-27.58-2.14-57.24-3.45-88.73-3.5" transform="translate(0 0)"/><path class="cls-6" d="M361,72.73c-.78,3-5.58,5.09-48.7,7.41-39,2.1-58.72,3.15-67.07,3.18-25.28.08-18.47-1.15-69.17-2.83-34-1.12-41.22-1.24-42.36-4.94-2.26-7.37,24-15.59,66.08-47.12,26.44-19.8,31.3-28,45.1-28.41,15.3-.51,21.49,9.11,51,29.58,42,29.08,67,35.65,65.09,43.13" transform="translate(0 0)"/><path class="cls-7" d="M319.65,64.61a.38.38,0,0,0,0-.75.38.38,0,0,0,0,.75" transform="translate(0 0)"/><path class="cls-7" d="M269.06,23.19a.38.38,0,0,0,0-.75.38.38,0,0,0,0,.75" transform="translate(0 0)"/><path class="cls-8" d="M240.27,30.38c.54,6.21-1.84,12.46-3.11,18.46-1.64,7.71-4.84,14.92-8.07,22.07-.2.44.45.82.64.38,3.27-7.21,6.5-14.47,8.15-22.25,1.29-6.06,3.69-12.38,3.14-18.66,0-.48-.79-.48-.75,0" transform="translate(0 0)"/><path class="cls-8" d="M266,44.92A58.3,58.3,0,0,0,272.74,56c2.11,2.74,4.8,6,8.27,7a.38.38,0,0,0,.2-.73A10.74,10.74,0,0,1,277,59.73,33.89,33.89,0,0,1,273,55.1a58.7,58.7,0,0,1-6.3-10.56c-.2-.44-.85-.06-.65.38" transform="translate(0 0)"/><path class="cls-8" d="M272.88,24.4a166,166,0,0,0,40.84,34.1c4.37,2.59,8.87,5,13.46,7.14.43.2.81-.44.38-.65a165.44,165.44,0,0,1-43.81-30.22q-5.43-5.21-10.34-10.9c-.32-.36-.85.17-.53.53" transform="translate(0 0)"/><path class="cls-8" d="M225.64,21.9c-10.6,17.13-25.25,33-43.58,42A55,55,0,0,1,170.9,68a.38.38,0,0,0,.2.73,65.73,65.73,0,0,0,20.77-9.65,110.33,110.33,0,0,0,22.64-20.5,135.19,135.19,0,0,0,11.78-16.27.38.38,0,0,0-.65-.38" transform="translate(0 0)"/><rect class="cls-3" x="76.5" y="155.81" width="33.05" height="10.11" transform="translate(-92.8 161) rotate(-60)"/></g></g></g></g></g></svg>